<svg id="Lager_1" data-name="Lager 1" xmlns="http://www.w3.org/2000/svg" viewBox="0 0 1366 755.05"><text y="51"/><path d="M11,388.56a154.17,154.17,0,0,0,78,22c44.52,0,70.53-23.51,70.53-57.52,0-31.51-18-49.52-63.52-67-55-19.5-89-48-89-95.53C7,138,50.52,99,116.05,99c34.51,0,59.52,8,74.53,16.51l-12,35.51a134.26,134.26,0,0,0-64-16C68.53,135,51,162.47,51,185.48c0,31.52,20.51,47,67,65,57,22,86,49.52,86,99,0,52-38.51,97-118,97-32.51,0-68-9.51-86-21.51Z" transform="translate(0 51)"/><path d="M397.65,441.58l-3.5-30.51h-1.5c-13.51,19-39.52,36-74,36-49,0-74-34.52-74-69.53,0-58.52,52-90.54,145.55-90v-5c0-20-5.5-56-55-56-22.51,0-46,7-63,18l-10-29c20-13,49-21.5,79.54-21.5,74,0,92,50.52,92,99v90.53c0,21,1,41.52,4,58ZM391.14,318c-48-1-102.54,7.5-102.54,54.52,0,28.51,19,42,41.52,42,31.51,0,51.52-20,58.52-40.51a46,46,0,0,0,2.5-14Z" transform="translate(0 51)"/><path d="M504.69,278.52c0-31-1-56-2-79H542.2l2,41.52h1c18-29.52,46.52-47,86-47,58.53,0,102.55,49.52,102.55,123.05,0,87-53,130-110,130-32,0-60-14-74.53-38h-1V540.62H504.69Zm43.51,64.53a99.08,99.08,0,0,0,2,18c8,30.51,34.52,51.52,66,51.52,46.52,0,73.53-38,73.53-93.53,0-48.52-25.51-90-72-90-30,0-58,21.51-66.53,54.52-1.5,5.5-3,12-3,18Z" transform="translate(0 51)"/><path d="M789.29,86.44h44V441.58h-44Z" transform="translate(0 51)"/><path d="M956.35,131.46c.5,15-10.51,27-28,27-15.51,0-26.51-12-26.51-27,0-15.5,11.5-27.51,27.51-27.51C945.84,104,956.35,116,956.35,131.46Zm-49,310.12V199.49h44V441.58Z" transform="translate(0 51)"/><path d="M1028.87,441.58V233h-34V199.49h34V188c0-34,7.51-65,28-84.53,16.51-16,38.52-22.51,59-22.51a101.86,101.86,0,0,1,37.51,7l-6,34c-6.5-3-15.51-5.5-28-5.5-37.52,0-47,33-47,70v13h58.52V233h-58.52V441.58Z" transform="translate(0 51)"/><path d="M1186.43,199.49l53,143.06c5.5,16,11.51,35,15.51,49.52h1c4.5-14.51,9.5-33,15.5-50.53l48-142H1366l-66,172.57c-31.51,83-53,125.55-83,151.56-21.51,19-43,26.51-54,28.51l-11-37a116.29,116.29,0,0,0,38.51-21.51c12-9.5,27-26.51,37-49,2-4.51,3.5-8,3.5-10.51s-1-6-3-11.5l-89.54-223.09Z" transform="translate(0 51)"/><path d="M49.37,523.41c7.05-4.17,25.19,11.65,29.22,24.14s20.15,19.14,31.23,23.31c11.09,5,59.45,14.15,81.62,17.48s39.3,0,56.43,3.33c16.12,3.33,37.28,5.83,44.34,2.5,6-3.33,79.6-5.83,105.8-5.83s39.3-3.33,57.43-9.16,22.17-15.82,42.33-15c21.15,1.66,59.45-10,79.6-15,21.16-4.16,60.46-8.32,96.73-20.81,35.27-13.32,117.89-35.8,140.06-36.63,22.17-1.66,51.39-14.15,63.48-17.48S900.82,471,926,470.13c24.18-.84,43.33-8.33,72.55-5,29.22,4.16,79.61,5.83,102.78,26.64,23.18,20,36.28,22.48,37.28,41.63,1,20,4,36.62-5,54.94-10.07,18.31-10.07,9.16-25.19,29.14-15.11,20.81-33.25,39.95-45.34,43.29s-65.5,5-79.6,3.33c-14.11-.84-36.28-9.16-38.29-20-3-11.66-14.11-27.48-7.06-36.63s31.24-22.48,43.33-16.65c13.1,5,21.16,17.48,17.13,25-4,6.66-15.11,16.65-15.11,16.65s16.12,12.49,23.17,13.32c7.06,1.66,31.24-1.66,44.34-10,12.09-7.49,20.15-7.49,32.24-24.14,13.1-15.82,25.19-15.82,25.19-35.8,0-20.81,1-25-5-42.45-7.06-16.65-11.09-23.32-29.23-28.31-18.13-4.16-22.16-15-46.35-15-25.19,0-43.33-4.17-70.53,0-27.21,5-22.17,14.15-59.45,25-37.29,11.65-31.24,0-75.57,34.13-43.33,34.13-38.3,25-68.52,46.62s-42.33,40.79-61.47,48.29c-20.15,6.66-48.37,10.82-74.57,14.15-26.19,4.16-53.4,4.16-71.54-.84-18.14-4.16-27.21-4.16-49.37,5.83s-63.48,30.8-85.65,35c-22.17,5-39.3,5.82-69.53,5.82-11.08,0-33.25-19.14-43.33-25.8-9.07-7.49-53.4,4.16-83.63-1.67s-56.43,1.67-75.57-15.81c-19.15-16.65-31.24-22.48-41.32-27.48-9.07-4.16-18.14-21.64-26.2-31.63s-22.16-25-30.23-47.45S38.28,531.73,49.37,523.41ZM138,635.79c19.14,8.33,15.11,12.49,32.24,17.48,18.14,4.16,41.31,9.16,50.38,9.16a221.48,221.48,0,0,0,61.47-8.32l48.37-13.32a357.43,357.43,0,0,0,52.39-14.16c27.21-10,56.43-21.64,62.48-25.8,7.05-5-50.38,5.82-83.64,5.82s-50.38.84-94.71.84-38.3,6.66-64.49,0-21.16-.84-41.32-9.16c-21.16-7.49-57.43-15-60.45-9.16S118.89,628.3,138,635.79Zm226.72,53.28c22.16-.83,45.34-3.33,53.4-6.66l49.38-24.14S490.71,645,515.9,632.46c24.19-12.49,30.23-10,46.35-25.81,17.13-15.81,25.19-20,40.31-27.47,15.11-8.32,12.09-10,29.22-15.82,16.12-5.82,19.15-12.48,24.18-14.15,6-.83-48.36,10.82-71.54,15-23.17,5-35.27,14.15-63.48,19.14-27.21,5.83-15.11-3.33-43.33,15-29.22,18.31-34.26,18.31-67.51,33.3-33.25,14.15-19.14,14.15-45.34,22.48s-48.37,11.65-42.32,16.65C327.47,676.58,342.59,690.73,364.76,689.07Zm258-52.45c25.19-3.33,18.14,0,24.19,0,5,0,25.19-12.48,39.29-19.14S713.4,605,743.63,585c30.23-20.81,45.34-40.79,69.53-52.45,23.17-11.65,79.6-34.13,69.52-31.63-9.07,1.66-43.32,5.83-64.49,7.49-20.15,2.5-56.42,10.82-69.52,14.15-14.11,3.33-17.13,10-25.19,19.15s-26.2,7.49-42.32,15.82c-17.13,8.32-15.12,10-30.23,21.64s-28.22,20-51.39,32.47-56.43,24.14-46.36,30C562.25,647.44,598.53,640.79,622.71,636.62Z" transform="translate(0 51)"/><text y="51"/></svg>